<?xml version="1.0" standalone="no"?>
<!DOCTYPE svg PUBLIC "-//W3C//DTD SVG 20010904//EN"
 "http://www.w3.org/TR/2001/REC-SVG-20010904/DTD/svg10.dtd">
<svg version="1.0" xmlns="http://www.w3.org/2000/svg"
 width="359.000000pt" height="359.000000pt" viewBox="0 0 359.000000 359.000000"
 preserveAspectRatio="xMidYMid meet">
<metadata>
Created by potrace 1.11, written by Peter Selinger 2001-2013
</metadata>
<g transform="translate(0.000000,359.000000) scale(0.100000,-0.100000)"
fill="#000000" stroke="none">
<path d="M2252 2304 c-102 -27 -186 -87 -221 -156 l-21 -43 0 103 0 102 -65 0
-65 0 0 -685 0 -685 65 0 65 0 0 282 0 282 29 -45 c15 -24 41 -56 57 -71 76
-71 236 -109 372 -89 257 38 417 232 416 506 0 258 -138 446 -366 500 -78 18
-196 18 -266 -1z m236 -122 c144 -46 236 -154 261 -312 51 -313 -256 -551
-535 -415 -65 32 -137 109 -172 183 -24 51 -27 69 -27 167 0 98 3 116 27 167
51 109 124 176 227 209 73 23 145 24 219 1z"/>
<path d="M1143 2261 c-169 -49 -291 -182 -329 -360 -17 -83 -17 -139 0 -223
45 -209 191 -345 405 -379 143 -22 306 26 395 115 25 25 46 49 46 54 0 4 -14
18 -31 31 l-30 22 -42 -42 c-23 -23 -67 -54 -97 -68 -49 -23 -67 -26 -165 -26
-103 0 -114 2 -177 32 -82 39 -142 99 -182 183 -56 119 -47 301 19 415 120
203 423 247 599 85 47 -43 63 -44 96 -5 11 14 7 22 -30 59 -50 52 -121 93
-194 112 -71 19 -207 16 -283 -5z"/>
</g>
</svg>
