<?xml version="1.0" standalone="no"?>
<!DOCTYPE svg PUBLIC "-//W3C//DTD SVG 20010904//EN"
 "http://www.w3.org/TR/2001/REC-SVG-20010904/DTD/svg10.dtd">
<svg version="1.0" xmlns="http://www.w3.org/2000/svg"
 width="513.000000pt" height="513.000000pt" viewBox="0 0 513.000000 513.000000"
 preserveAspectRatio="xMidYMid meet">
<metadata>
Created by potrace 1.11, written by Peter Selinger 2001-2013
</metadata>
<g transform="translate(0.000000,513.000000) scale(0.100000,-0.100000)"
fill="#000000" stroke="none">
<path d="M2243 4944 c-1100 -133 -1969 -1007 -2098 -2110 -133 -1133 552
-2208 1635 -2564 1262 -415 2626 271 3040 1530 415 1262 -271 2626 -1530 3040
-325 107 -709 145 -1047 104z m-412 -1089 c230 -34 484 -152 611 -282 l37 -38
-106 -140 c-58 -77 -117 -149 -132 -160 -46 -35 -105 -27 -191 26 -165 102
-253 129 -424 129 -205 0 -323 -46 -451 -174 -129 -130 -193 -280 -216 -509
-31 -316 57 -598 242 -773 68 -63 122 -95 224 -130 73 -26 93 -28 220 -28 217
0 280 22 484 170 22 15 48 24 73 24 45 0 75 -25 219 -181 l90 -98 -72 -76
c-158 -166 -370 -269 -629 -305 -113 -16 -361 -13 -465 5 -251 44 -461 151
-630 320 -161 162 -269 371 -327 633 -30 134 -32 473 -5 602 102 471 377 792
802 936 180 60 441 80 646 49z m2099 -30 c308 -49 538 -195 654 -415 65 -122
81 -202 80 -395 0 -142 -4 -183 -22 -248 -72 -261 -237 -430 -519 -530 -135
-49 -219 -60 -503 -66 l-265 -6 -3 -422 -2 -423 -290 0 -290 0 0 1267 0 1266
533 -7 c396 -5 557 -10 627 -21z"/>
<path d="M3350 3011 l0 -399 133 -7 c160 -9 310 5 392 36 79 30 153 103 186
184 20 52 23 77 23 185 0 106 -3 134 -22 181 -41 103 -143 181 -270 208 -29 6
-141 11 -247 11 l-195 0 0 -399z"/>
</g>
</svg>
